# xmcd
#
# Track frame offsets:
#	150
#	13166
#	27780
#	40901
#	57037
#	68811
#	83417
#	98826
#	111632
#	125946
#
# Disc length: 1883 seconds
#
# Revision: 0
# Processed by: cddbd v1.5.2PL0 Copyright (c) Steve Scherf et al.
# Submitted via: FairStars CD Ripper 1.52
#
DISCID=8207590a
DTITLE=Juice Newton - Silver Spur
DYEAR=1981
DGENRE=Country
TTITLE0=Catwillow river
TTITLE1=Just remember who your friends are
TTITLE2=Love is a word
TTITLE3=The sweetest thing
TTITLE4=Roll on truckers
TTITLE5=Won't you stay
TTITLE6=It's high time
TTITLE7=You please me
TTITLE8=The shelter of your love
TTITLE9=Stand by me, Jesus
EXTD=
EXTT0=
EXTT1=
EXTT2=
EXTT3=
EXTT4=
EXTT5=
EXTT6=
EXTT7=
EXTT8=
EXTT9=
PLAYORDER=
